<?xml version="1.0" encoding="utf-8" standalone="no"?>
<!DOCTYPE svg PUBLIC "-//W3C//DTD SVG 1.1//EN"
  "http://www.w3.org/Graphics/SVG/1.1/DTD/svg11.dtd">
<!-- Created with matplotlib (https://matplotlib.org/) -->
<svg height="345.6pt" version="1.1" viewBox="0 0 460.8 345.6" width="460.8pt" xmlns="http://www.w3.org/2000/svg" xmlns:xlink="http://www.w3.org/1999/xlink">
 <defs>
  <style type="text/css">
*{stroke-linecap:butt;stroke-linejoin:round;}
  </style>
 </defs>
 <g id="figure_1">
  <g id="patch_1">
   <path d="M 0 345.6 
L 460.8 345.6 
L 460.8 0 
L 0 0 
z
" style="fill:#ffffff;"/>
  </g>
  <g id="axes_1">
   <g id="patch_2">
    <path d="M 52.31 303.64 
L 447.48 303.64 
L 447.48 13.32 
L 52.31 13.32 
z
" style="fill:#ffffff;"/>
   </g>
   <g id="matplotlib.axis_1">
    <g id="xtick_1">
     <g id="line2d_1">
      <defs>
       <path d="M 0 0 
L 0 3.5 
" id="m923010e096" style="stroke:#000000;stroke-width:0.8;"/>
      </defs>
      <g>
       <use style="stroke:#000000;stroke-width:0.8;" x="68.439388" xlink:href="#m923010e096" y="303.64"/>
      </g>
     </g>
     <g id="text_1">
      <!-- 0 -->
      <defs>
       <path d="M 31.78125 66.40625 
Q 24.171875 66.40625 20.328125 58.90625 
Q 16.5 51.421875 16.5 36.375 
Q 16.5 21.390625 20.328125 13.890625 
Q 24.171875 6.390625 31.78125 6.390625 
Q 39.453125 6.390625 43.28125 13.890625 
Q 47.125 21.390625 47.125 36.375 
Q 47.125 51.421875 43.28125 58.90625 
Q 39.453125 66.40625 31.78125 66.40625 
z
M 31.78125 74.21875 
Q 44.046875 74.21875 50.515625 64.515625 
Q 56.984375 54.828125 56.984375 36.375 
Q 56.984375 17.96875 50.515625 8.265625 
Q 44.046875 -1.421875 31.78125 -1.421875 
Q 19.53125 -1.421875 13.0625 8.265625 
Q 6.59375 17.96875 6.59375 36.375 
Q 6.59375 54.828125 13.0625 64.515625 
Q 19.53125 74.21875 31.78125 74.21875 
z
" id="DejaVuSans-48"/>
      </defs>
      <g transform="translate(65.258138 318.238437)scale(0.1 -0.1)">
       <use xlink:href="#DejaVuSans-48"/>
      </g>
     </g>
    </g>
    <g id="xtick_2">
     <g id="line2d_2">
      <g>
       <use style="stroke:#000000;stroke-width:0.8;" x="141.754787" xlink:href="#m923010e096" y="303.64"/>
      </g>
     </g>
     <g id="text_2">
      <!-- 20 -->
      <defs>
       <path d="M 19.1875 8.296875 
L 53.609375 8.296875 
L 53.609375 0 
L 7.328125 0 
L 7.328125 8.296875 
Q 12.9375 14.109375 22.625 23.890625 
Q 32.328125 33.6875 34.8125 36.53125 
Q 39.546875 41.84375 41.421875 45.53125 
Q 43.3125 49.21875 43.3125 52.78125 
Q 43.3125 58.59375 39.234375 62.25 
Q 35.15625 65.921875 28.609375 65.921875 
Q 23.96875 65.921875 18.8125 64.3125 
Q 13.671875 62.703125 7.8125 59.421875 
L 7.8125 69.390625 
Q 13.765625 71.78125 18.9375 73 
Q 24.125 74.21875 28.421875 74.21875 
Q 39.75 74.21875 46.484375 68.546875 
Q 53.21875 62.890625 53.21875 53.421875 
Q 53.21875 48.921875 51.53125 44.890625 
Q 49.859375 40.875 45.40625 35.40625 
Q 44.1875 33.984375 37.640625 27.21875 
Q 31.109375 20.453125 19.1875 8.296875 
z
" id="DejaVuSans-50"/>
      </defs>
      <g transform="translate(135.392287 318.238437)scale(0.1 -0.1)">
       <use xlink:href="#DejaVuSans-50"/>
       <use x="63.623047" xlink:href="#DejaVuSans-48"/>
      </g>
     </g>
    </g>
    <g id="xtick_3">
     <g id="line2d_3">
      <g>
       <use style="stroke:#000000;stroke-width:0.8;" x="215.070186" xlink:href="#m923010e096" y="303.64"/>
      </g>
     </g>
     <g id="text_3">
      <!-- 40 -->
      <defs>
       <path d="M 37.796875 64.3125 
L 12.890625 25.390625 
L 37.796875 25.390625 
z
M 35.203125 72.90625 
L 47.609375 72.90625 
L 47.609375 25.390625 
L 58.015625 25.390625 
L 58.015625 17.1875 
L 47.609375 17.1875 
L 47.609375 0 
L 37.796875 0 
L 37.796875 17.1875 
L 4.890625 17.1875 
L 4.890625 26.703125 
z
" id="DejaVuSans-52"/>
      </defs>
      <g transform="translate(208.707686 318.238437)scale(0.1 -0.1)">
       <use xlink:href="#DejaVuSans-52"/>
       <use x="63.623047" xlink:href="#DejaVuSans-48"/>
      </g>
     </g>
    </g>
    <g id="xtick_4">
     <g id="line2d_4">
      <g>
       <use style="stroke:#000000;stroke-width:0.8;" x="288.385584" xlink:href="#m923010e096" y="303.64"/>
      </g>
     </g>
     <g id="text_4">
      <!-- 60 -->
      <defs>
       <path d="M 33.015625 40.375 
Q 26.375 40.375 22.484375 35.828125 
Q 18.609375 31.296875 18.609375 23.390625 
Q 18.609375 15.53125 22.484375 10.953125 
Q 26.375 6.390625 33.015625 6.390625 
Q 39.65625 6.390625 43.53125 10.953125 
Q 47.40625 15.53125 47.40625 23.390625 
Q 47.40625 31.296875 43.53125 35.828125 
Q 39.65625 40.375 33.015625 40.375 
z
M 52.59375 71.296875 
L 52.59375 62.3125 
Q 48.875 64.0625 45.09375 64.984375 
Q 41.3125 65.921875 37.59375 65.921875 
Q 27.828125 65.921875 22.671875 59.328125 
Q 17.53125 52.734375 16.796875 39.40625 
Q 19.671875 43.65625 24.015625 45.921875 
Q 28.375 48.1875 33.59375 48.1875 
Q 44.578125 48.1875 50.953125 41.515625 
Q 57.328125 34.859375 57.328125 23.390625 
Q 57.328125 12.15625 50.6875 5.359375 
Q 44.046875 -1.421875 33.015625 -1.421875 
Q 20.359375 -1.421875 13.671875 8.265625 
Q 6.984375 17.96875 6.984375 36.375 
Q 6.984375 53.65625 15.1875 63.9375 
Q 23.390625 74.21875 37.203125 74.21875 
Q 40.921875 74.21875 44.703125 73.484375 
Q 48.484375 72.75 52.59375 71.296875 
z
" id="DejaVuSans-54"/>
      </defs>
      <g transform="translate(282.023084 318.238437)scale(0.1 -0.1)">
       <use xlink:href="#DejaVuSans-54"/>
       <use x="63.623047" xlink:href="#DejaVuSans-48"/>
      </g>
     </g>
    </g>
    <g id="xtick_5">
     <g id="line2d_5">
      <g>
       <use style="stroke:#000000;stroke-width:0.8;" x="361.700983" xlink:href="#m923010e096" y="303.64"/>
      </g>
     </g>
     <g id="text_5">
      <!-- 80 -->
      <defs>
       <path d="M 31.78125 34.625 
Q 24.75 34.625 20.71875 30.859375 
Q 16.703125 27.09375 16.703125 20.515625 
Q 16.703125 13.921875 20.71875 10.15625 
Q 24.75 6.390625 31.78125 6.390625 
Q 38.8125 6.390625 42.859375 10.171875 
Q 46.921875 13.96875 46.921875 20.515625 
Q 46.921875 27.09375 42.890625 30.859375 
Q 38.875 34.625 31.78125 34.625 
z
M 21.921875 38.8125 
Q 15.578125 40.375 12.03125 44.71875 
Q 8.5 49.078125 8.5 55.328125 
Q 8.5 64.0625 14.71875 69.140625 
Q 20.953125 74.21875 31.78125 74.21875 
Q 42.671875 74.21875 48.875 69.140625 
Q 55.078125 64.0625 55.078125 55.328125 
Q 55.078125 49.078125 51.53125 44.71875 
Q 48 40.375 41.703125 38.8125 
Q 48.828125 37.15625 52.796875 32.3125 
Q 56.78125 27.484375 56.78125 20.515625 
Q 56.78125 9.90625 50.3125 4.234375 
Q 43.84375 -1.421875 31.78125 -1.421875 
Q 19.734375 -1.421875 13.25 4.234375 
Q 6.78125 9.90625 6.78125 20.515625 
Q 6.78125 27.484375 10.78125 32.3125 
Q 14.796875 37.15625 21.921875 38.8125 
z
M 18.3125 54.390625 
Q 18.3125 48.734375 21.84375 45.5625 
Q 25.390625 42.390625 31.78125 42.390625 
Q 38.140625 42.390625 41.71875 45.5625 
Q 45.3125 48.734375 45.3125 54.390625 
Q 45.3125 60.0625 41.71875 63.234375 
Q 38.140625 66.40625 31.78125 66.40625 
Q 25.390625 66.40625 21.84375 63.234375 
Q 18.3125 60.0625 18.3125 54.390625 
z
" id="DejaVuSans-56"/>
      </defs>
      <g transform="translate(355.338483 318.238437)scale(0.1 -0.1)">
       <use xlink:href="#DejaVuSans-56"/>
       <use x="63.623047" xlink:href="#DejaVuSans-48"/>
      </g>
     </g>
    </g>
    <g id="xtick_6">
     <g id="line2d_6">
      <g>
       <use style="stroke:#000000;stroke-width:0.8;" x="435.016382" xlink:href="#m923010e096" y="303.64"/>
      </g>
     </g>
     <g id="text_6">
      <!-- 100 -->
      <defs>
       <path d="M 12.40625 8.296875 
L 28.515625 8.296875 
L 28.515625 63.921875 
L 10.984375 60.40625 
L 10.984375 69.390625 
L 28.421875 72.90625 
L 38.28125 72.90625 
L 38.28125 8.296875 
L 54.390625 8.296875 
L 54.390625 0 
L 12.40625 0 
z
" id="DejaVuSans-49"/>
      </defs>
      <g transform="translate(425.472632 318.238437)scale(0.1 -0.1)">
       <use xlink:href="#DejaVuSans-49"/>
       <use x="63.623047" xlink:href="#DejaVuSans-48"/>
       <use x="127.246094" xlink:href="#DejaVuSans-48"/>
      </g>
     </g>
    </g>
    <g id="text_7">
     <!-- $N$ -->
     <defs>
      <path d="M 16.890625 72.90625 
L 30.171875 72.90625 
L 50.296875 10.40625 
L 62.5 72.90625 
L 72.125 72.90625 
L 57.90625 0 
L 44.578125 0 
L 24.515625 62.890625 
L 12.3125 0 
L 2.6875 0 
z
" id="DejaVuSans-Oblique-78"/>
     </defs>
     <g transform="translate(246.145 331.916562)scale(0.1 -0.1)">
      <use transform="translate(0 0.09375)" xlink:href="#DejaVuSans-Oblique-78"/>
     </g>
    </g>
   </g>
   <g id="matplotlib.axis_2">
    <g id="ytick_1">
     <g id="line2d_7">
      <defs>
       <path d="M 0 0 
L -3.5 0 
" id="m617ee654ae" style="stroke:#000000;stroke-width:0.8;"/>
      </defs>
      <g>
       <use style="stroke:#000000;stroke-width:0.8;" x="52.31" xlink:href="#m617ee654ae" y="290.443636"/>
      </g>
     </g>
     <g id="text_8">
      <!-- 0 -->
      <g transform="translate(38.9475 294.242855)scale(0.1 -0.1)">
       <use xlink:href="#DejaVuSans-48"/>
      </g>
     </g>
    </g>
    <g id="ytick_2">
     <g id="line2d_8">
      <g>
       <use style="stroke:#000000;stroke-width:0.8;" x="52.31" xlink:href="#m617ee654ae" y="236.137613"/>
      </g>
     </g>
     <g id="text_9">
      <!-- 50 -->
      <defs>
       <path d="M 10.796875 72.90625 
L 49.515625 72.90625 
L 49.515625 64.59375 
L 19.828125 64.59375 
L 19.828125 46.734375 
Q 21.96875 47.46875 24.109375 47.828125 
Q 26.265625 48.1875 28.421875 48.1875 
Q 40.625 48.1875 47.75 41.5 
Q 54.890625 34.8125 54.890625 23.390625 
Q 54.890625 11.625 47.5625 5.09375 
Q 40.234375 -1.421875 26.90625 -1.421875 
Q 22.3125 -1.421875 17.546875 -0.640625 
Q 12.796875 0.140625 7.71875 1.703125 
L 7.71875 11.625 
Q 12.109375 9.234375 16.796875 8.0625 
Q 21.484375 6.890625 26.703125 6.890625 
Q 35.15625 6.890625 40.078125 11.328125 
Q 45.015625 15.765625 45.015625 23.390625 
Q 45.015625 31 40.078125 35.4375 
Q 35.15625 39.890625 26.703125 39.890625 
Q 22.75 39.890625 18.8125 39.015625 
Q 14.890625 38.140625 10.796875 36.28125 
z
" id="DejaVuSans-53"/>
      </defs>
      <g transform="translate(32.585 239.936832)scale(0.1 -0.1)">
       <use xlink:href="#DejaVuSans-53"/>
       <use x="63.623047" xlink:href="#DejaVuSans-48"/>
      </g>
     </g>
    </g>
    <g id="ytick_3">
     <g id="line2d_9">
      <g>
       <use style="stroke:#000000;stroke-width:0.8;" x="52.31" xlink:href="#m617ee654ae" y="181.83159"/>
      </g>
     </g>
     <g id="text_10">
      <!-- 100 -->
      <g transform="translate(26.2225 185.630809)scale(0.1 -0.1)">
       <use xlink:href="#DejaVuSans-49"/>
       <use x="63.623047" xlink:href="#DejaVuSans-48"/>
       <use x="127.246094" xlink:href="#DejaVuSans-48"/>
      </g>
     </g>
    </g>
    <g id="ytick_4">
     <g id="line2d_10">
      <g>
       <use style="stroke:#000000;stroke-width:0.8;" x="52.31" xlink:href="#m617ee654ae" y="127.525567"/>
      </g>
     </g>
     <g id="text_11">
      <!-- 150 -->
      <g transform="translate(26.2225 131.324786)scale(0.1 -0.1)">
       <use xlink:href="#DejaVuSans-49"/>
       <use x="63.623047" xlink:href="#DejaVuSans-53"/>
       <use x="127.246094" xlink:href="#DejaVuSans-48"/>
      </g>
     </g>
    </g>
    <g id="ytick_5">
     <g id="line2d_11">
      <g>
       <use style="stroke:#000000;stroke-width:0.8;" x="52.31" xlink:href="#m617ee654ae" y="73.219544"/>
      </g>
     </g>
     <g id="text_12">
      <!-- 200 -->
      <g transform="translate(26.2225 77.018762)scale(0.1 -0.1)">
       <use xlink:href="#DejaVuSans-50"/>
       <use x="63.623047" xlink:href="#DejaVuSans-48"/>
       <use x="127.246094" xlink:href="#DejaVuSans-48"/>
      </g>
     </g>
    </g>
    <g id="ytick_6">
     <g id="line2d_12">
      <g>
       <use style="stroke:#000000;stroke-width:0.8;" x="52.31" xlink:href="#m617ee654ae" y="18.91352"/>
      </g>
     </g>
     <g id="text_13">
      <!-- 250 -->
      <g transform="translate(26.2225 22.712739)scale(0.1 -0.1)">
       <use xlink:href="#DejaVuSans-50"/>
       <use x="63.623047" xlink:href="#DejaVuSans-53"/>
       <use x="127.246094" xlink:href="#DejaVuSans-48"/>
      </g>
     </g>
    </g>
    <g id="text_14">
     <!-- $P(N)$ -->
     <defs>
      <path d="M 16.890625 72.90625 
L 39.703125 72.90625 
Q 49.65625 72.90625 54.875 68.265625 
Q 60.109375 63.625 60.109375 54.6875 
Q 60.109375 42.671875 52.390625 35.984375 
Q 44.671875 29.296875 30.71875 29.296875 
L 18.3125 29.296875 
L 12.59375 0 
L 2.6875 0 
z
M 25.203125 64.796875 
L 19.921875 37.40625 
L 32.328125 37.40625 
Q 40.71875 37.40625 45.203125 41.703125 
Q 49.703125 46 49.703125 54 
Q 49.703125 59.125 46.65625 61.953125 
Q 43.609375 64.796875 38.09375 64.796875 
z
" id="DejaVuSans-Oblique-80"/>
      <path d="M 31 75.875 
Q 24.46875 64.65625 21.28125 53.65625 
Q 18.109375 42.671875 18.109375 31.390625 
Q 18.109375 20.125 21.3125 9.0625 
Q 24.515625 -2 31 -13.1875 
L 23.1875 -13.1875 
Q 15.875 -1.703125 12.234375 9.375 
Q 8.59375 20.453125 8.59375 31.390625 
Q 8.59375 42.28125 12.203125 53.3125 
Q 15.828125 64.359375 23.1875 75.875 
z
" id="DejaVuSans-40"/>
      <path d="M 8.015625 75.875 
L 15.828125 75.875 
Q 23.140625 64.359375 26.78125 53.3125 
Q 30.421875 42.28125 30.421875 31.390625 
Q 30.421875 20.453125 26.78125 9.375 
Q 23.140625 -1.703125 15.828125 -13.1875 
L 8.015625 -13.1875 
Q 14.5 -2 17.703125 9.0625 
Q 20.90625 20.125 20.90625 31.390625 
Q 20.90625 42.671875 17.703125 53.65625 
Q 14.5 64.65625 8.015625 75.875 
z
" id="DejaVuSans-41"/>
     </defs>
     <g transform="translate(20.142812 169.18)rotate(-90)scale(0.1 -0.1)">
      <use transform="translate(0 0.125)" xlink:href="#DejaVuSans-Oblique-80"/>
      <use transform="translate(60.302734 0.125)" xlink:href="#DejaVuSans-40"/>
      <use transform="translate(99.316406 0.125)" xlink:href="#DejaVuSans-Oblique-78"/>
      <use transform="translate(174.121094 0.125)" xlink:href="#DejaVuSans-41"/>
     </g>
    </g>
   </g>
   <g id="line2d_13">
    <path clip-path="url(#p901fcbac0f)" d="M 70.272273 290.443636 
L 73.938043 290.443636 
L 77.603813 290.443636 
L 81.269583 290.443636 
L 84.935353 290.443636 
L 88.601122 290.443636 
L 92.266892 290.443636 
L 95.932662 288.271395 
L 99.598432 282.840793 
L 103.264202 273.065709 
L 106.929972 240.482095 
L 110.595742 203.553999 
L 114.261512 154.678578 
L 117.927282 88.42523 
L 121.593052 71.047303 
L 125.258822 48.238773 
L 128.924592 26.516364 
L 132.590362 50.411014 
L 136.256132 103.630917 
L 139.921902 169.884265 
L 143.587672 212.242963 
L 147.253442 233.965372 
L 150.919212 268.721227 
L 154.584981 273.065709 
L 158.250751 286.099155 
L 161.916521 288.271395 
L 165.582291 290.443636 
L 169.248061 289.357516 
L 172.913831 290.443636 
L 176.579601 290.443636 
L 180.245371 290.443636 
L 183.911141 290.443636 
L 187.576911 290.443636 
L 191.242681 290.443636 
L 194.908451 290.443636 
L 198.574221 290.443636 
L 202.239991 290.443636 
L 205.905761 290.443636 
L 209.571531 290.443636 
L 213.237301 290.443636 
L 216.903071 290.443636 
L 220.56884 290.443636 
L 224.23461 290.443636 
L 227.90038 290.443636 
L 231.56615 290.443636 
L 235.23192 290.443636 
L 238.89769 290.443636 
L 242.56346 290.443636 
L 246.22923 290.443636 
L 249.895 290.443636 
L 253.56077 290.443636 
L 257.22654 290.443636 
L 260.89231 290.443636 
L 264.55808 290.443636 
L 268.22385 290.443636 
L 271.88962 290.443636 
L 275.55539 290.443636 
L 279.22116 290.443636 
L 282.886929 290.443636 
L 286.552699 290.443636 
L 290.218469 290.443636 
L 293.884239 290.443636 
L 297.550009 290.443636 
L 301.215779 290.443636 
L 304.881549 290.443636 
L 308.547319 290.443636 
L 312.213089 290.443636 
L 315.878859 290.443636 
L 319.544629 290.443636 
L 323.210399 290.443636 
L 326.876169 290.443636 
L 330.541939 290.443636 
L 334.207709 290.443636 
L 337.873479 290.443636 
L 341.539249 290.443636 
L 345.205019 290.443636 
L 348.870788 290.443636 
L 352.536558 290.443636 
L 356.202328 290.443636 
L 359.868098 290.443636 
L 363.533868 290.443636 
L 367.199638 290.443636 
L 370.865408 290.443636 
L 374.531178 290.443636 
L 378.196948 290.443636 
L 381.862718 290.443636 
L 385.528488 290.443636 
L 389.194258 290.443636 
L 392.860028 290.443636 
L 396.525798 290.443636 
L 400.191568 290.443636 
L 403.857338 290.443636 
L 407.523108 290.443636 
L 411.188878 290.443636 
L 414.854647 290.443636 
L 418.520417 290.443636 
L 422.186187 290.443636 
L 425.851957 290.443636 
L 429.517727 290.443636 
" style="fill:none;stroke:#1f77b4;stroke-linecap:square;stroke-width:1.5;"/>
   </g>
   <g id="line2d_14">
    <path clip-path="url(#p901fcbac0f)" d="M 70.272273 290.443636 
L 73.938043 290.443636 
L 77.603813 290.443636 
L 81.269583 290.443636 
L 84.935353 290.443636 
L 88.601122 290.443636 
L 92.266892 290.443636 
L 95.932662 290.443636 
L 99.598432 290.443636 
L 103.264202 290.443636 
L 106.929972 290.443636 
L 110.595742 290.443636 
L 114.261512 290.443636 
L 117.927282 289.357516 
L 121.593052 286.099155 
L 125.258822 280.668552 
L 128.924592 267.635107 
L 132.590362 254.601661 
L 136.256132 233.965372 
L 139.921902 169.884265 
L 143.587672 137.300651 
L 147.253442 115.578242 
L 150.919212 96.028073 
L 154.584981 56.927737 
L 158.250751 54.755496 
L 161.916521 73.219544 
L 165.582291 115.578242 
L 169.248061 177.487108 
L 172.913831 192.692795 
L 176.579601 230.707011 
L 180.245371 261.118384 
L 183.911141 281.754673 
L 187.576911 281.754673 
L 191.242681 287.185275 
L 194.908451 289.357516 
L 198.574221 290.443636 
L 202.239991 290.443636 
L 205.905761 290.443636 
L 209.571531 290.443636 
L 213.237301 290.443636 
L 216.903071 290.443636 
L 220.56884 290.443636 
L 224.23461 290.443636 
L 227.90038 290.443636 
L 231.56615 290.443636 
L 235.23192 290.443636 
L 238.89769 290.443636 
L 242.56346 290.443636 
L 246.22923 290.443636 
L 249.895 290.443636 
L 253.56077 290.443636 
L 257.22654 290.443636 
L 260.89231 290.443636 
L 264.55808 290.443636 
L 268.22385 290.443636 
L 271.88962 290.443636 
L 275.55539 290.443636 
L 279.22116 290.443636 
L 282.886929 290.443636 
L 286.552699 290.443636 
L 290.218469 290.443636 
L 293.884239 290.443636 
L 297.550009 290.443636 
L 301.215779 290.443636 
L 304.881549 290.443636 
L 308.547319 290.443636 
L 312.213089 290.443636 
L 315.878859 290.443636 
L 319.544629 290.443636 
L 323.210399 290.443636 
L 326.876169 290.443636 
L 330.541939 290.443636 
L 334.207709 290.443636 
L 337.873479 290.443636 
L 341.539249 290.443636 
L 345.205019 290.443636 
L 348.870788 290.443636 
L 352.536558 290.443636 
L 356.202328 290.443636 
L 359.868098 290.443636 
L 363.533868 290.443636 
L 367.199638 290.443636 
L 370.865408 290.443636 
L 374.531178 290.443636 
L 378.196948 290.443636 
L 381.862718 290.443636 
L 385.528488 290.443636 
L 389.194258 290.443636 
L 392.860028 290.443636 
L 396.525798 290.443636 
L 400.191568 290.443636 
L 403.857338 290.443636 
L 407.523108 290.443636 
L 411.188878 290.443636 
L 414.854647 290.443636 
L 418.520417 290.443636 
L 422.186187 290.443636 
L 425.851957 290.443636 
L 429.517727 290.443636 
" style="fill:none;stroke:#ff7f0e;stroke-linecap:square;stroke-width:1.5;"/>
   </g>
   <g id="line2d_15">
    <path clip-path="url(#p901fcbac0f)" d="M 70.272273 290.443636 
L 73.938043 290.443636 
L 77.603813 290.443636 
L 81.269583 290.443636 
L 84.935353 290.443636 
L 88.601122 290.443636 
L 92.266892 290.443636 
L 95.932662 290.443636 
L 99.598432 290.443636 
L 103.264202 290.443636 
L 106.929972 290.443636 
L 110.595742 290.443636 
L 114.261512 290.443636 
L 117.927282 290.443636 
L 121.593052 290.443636 
L 125.258822 290.443636 
L 128.924592 290.443636 
L 132.590362 290.443636 
L 136.256132 290.443636 
L 139.921902 290.443636 
L 143.587672 290.443636 
L 147.253442 290.443636 
L 150.919212 287.185275 
L 154.584981 288.271395 
L 158.250751 287.185275 
L 161.916521 273.065709 
L 165.582291 261.118384 
L 169.248061 232.879252 
L 172.913831 222.018047 
L 176.579601 184.003831 
L 180.245371 150.334097 
L 183.911141 76.477905 
L 187.576911 76.477905 
L 191.242681 65.6167 
L 194.908451 105.803158 
L 198.574221 77.564025 
L 202.239991 128.611687 
L 205.905761 167.712024 
L 209.571531 212.242963 
L 213.237301 230.707011 
L 216.903071 263.290625 
L 220.56884 279.582432 
L 224.23461 281.754673 
L 227.90038 282.840793 
L 231.56615 289.357516 
L 235.23192 290.443636 
L 238.89769 290.443636 
L 242.56346 290.443636 
L 246.22923 290.443636 
L 249.895 290.443636 
L 253.56077 290.443636 
L 257.22654 290.443636 
L 260.89231 290.443636 
L 264.55808 290.443636 
L 268.22385 290.443636 
L 271.88962 290.443636 
L 275.55539 290.443636 
L 279.22116 290.443636 
L 282.886929 290.443636 
L 286.552699 290.443636 
L 290.218469 290.443636 
L 293.884239 290.443636 
L 297.550009 290.443636 
L 301.215779 290.443636 
L 304.881549 290.443636 
L 308.547319 290.443636 
L 312.213089 290.443636 
L 315.878859 290.443636 
L 319.544629 290.443636 
L 323.210399 290.443636 
L 326.876169 290.443636 
L 330.541939 290.443636 
L 334.207709 290.443636 
L 337.873479 290.443636 
L 341.539249 290.443636 
L 345.205019 290.443636 
L 348.870788 290.443636 
L 352.536558 290.443636 
L 356.202328 290.443636 
L 359.868098 290.443636 
L 363.533868 290.443636 
L 367.199638 290.443636 
L 370.865408 290.443636 
L 374.531178 290.443636 
L 378.196948 290.443636 
L 381.862718 290.443636 
L 385.528488 290.443636 
L 389.194258 290.443636 
L 392.860028 290.443636 
L 396.525798 290.443636 
L 400.191568 290.443636 
L 403.857338 290.443636 
L 407.523108 290.443636 
L 411.188878 290.443636 
L 414.854647 290.443636 
L 418.520417 290.443636 
L 422.186187 290.443636 
L 425.851957 290.443636 
L 429.517727 290.443636 
" style="fill:none;stroke:#2ca02c;stroke-linecap:square;stroke-width:1.5;"/>
   </g>
   <g id="line2d_16">
    <path clip-path="url(#p901fcbac0f)" d="M 70.272273 290.443636 
L 73.938043 290.443636 
L 77.603813 290.443636 
L 81.269583 290.443636 
L 84.935353 290.443636 
L 88.601122 290.443636 
L 92.266892 290.443636 
L 95.932662 290.443636 
L 99.598432 290.443636 
L 103.264202 290.443636 
L 106.929972 290.443636 
L 110.595742 290.443636 
L 114.261512 290.443636 
L 117.927282 290.443636 
L 121.593052 290.443636 
L 125.258822 290.443636 
L 128.924592 290.443636 
L 132.590362 290.443636 
L 136.256132 290.443636 
L 139.921902 290.443636 
L 143.587672 290.443636 
L 147.253442 290.443636 
L 150.919212 290.443636 
L 154.584981 290.443636 
L 158.250751 290.443636 
L 161.916521 290.443636 
L 165.582291 290.443636 
L 169.248061 290.443636 
L 172.913831 290.443636 
L 176.579601 290.443636 
L 180.245371 290.443636 
L 183.911141 290.443636 
L 187.576911 288.271395 
L 191.242681 288.271395 
L 194.908451 286.099155 
L 198.574221 277.410191 
L 202.239991 263.290625 
L 205.905761 246.998818 
L 209.571531 227.448649 
L 213.237301 170.970385 
L 216.903071 151.420217 
L 220.56884 98.200314 
L 224.23461 72.133423 
L 227.90038 74.305664 
L 231.56615 93.855832 
L 235.23192 63.444459 
L 238.89769 134.04229 
L 242.56346 152.506337 
L 246.22923 200.295638 
L 249.895 248.084938 
L 253.56077 253.515541 
L 257.22654 277.410191 
L 260.89231 280.668552 
L 264.55808 287.185275 
L 268.22385 288.271395 
L 271.88962 290.443636 
L 275.55539 290.443636 
L 279.22116 290.443636 
L 282.886929 290.443636 
L 286.552699 290.443636 
L 290.218469 290.443636 
L 293.884239 290.443636 
L 297.550009 290.443636 
L 301.215779 290.443636 
L 304.881549 290.443636 
L 308.547319 290.443636 
L 312.213089 290.443636 
L 315.878859 290.443636 
L 319.544629 290.443636 
L 323.210399 290.443636 
L 326.876169 290.443636 
L 330.541939 290.443636 
L 334.207709 290.443636 
L 337.873479 290.443636 
L 341.539249 290.443636 
L 345.205019 290.443636 
L 348.870788 290.443636 
L 352.536558 290.443636 
L 356.202328 290.443636 
L 359.868098 290.443636 
L 363.533868 290.443636 
L 367.199638 290.443636 
L 370.865408 290.443636 
L 374.531178 290.443636 
L 378.196948 290.443636 
L 381.862718 290.443636 
L 385.528488 290.443636 
L 389.194258 290.443636 
L 392.860028 290.443636 
L 396.525798 290.443636 
L 400.191568 290.443636 
L 403.857338 290.443636 
L 407.523108 290.443636 
L 411.188878 290.443636 
L 414.854647 290.443636 
L 418.520417 290.443636 
L 422.186187 290.443636 
L 425.851957 290.443636 
L 429.517727 290.443636 
" style="fill:none;stroke:#d62728;stroke-linecap:square;stroke-width:1.5;"/>
   </g>
   <g id="line2d_17">
    <path clip-path="url(#p901fcbac0f)" d="M 70.272273 290.443636 
L 73.938043 290.443636 
L 77.603813 290.443636 
L 81.269583 290.443636 
L 84.935353 290.443636 
L 88.601122 290.443636 
L 92.266892 290.443636 
L 95.932662 290.443636 
L 99.598432 290.443636 
L 103.264202 290.443636 
L 106.929972 290.443636 
L 110.595742 290.443636 
L 114.261512 290.443636 
L 117.927282 290.443636 
L 121.593052 290.443636 
L 125.258822 290.443636 
L 128.924592 290.443636 
L 132.590362 290.443636 
L 136.256132 290.443636 
L 139.921902 290.443636 
L 143.587672 290.443636 
L 147.253442 290.443636 
L 150.919212 290.443636 
L 154.584981 290.443636 
L 158.250751 290.443636 
L 161.916521 290.443636 
L 165.582291 290.443636 
L 169.248061 290.443636 
L 172.913831 290.443636 
L 176.579601 290.443636 
L 180.245371 290.443636 
L 183.911141 290.443636 
L 187.576911 290.443636 
L 191.242681 290.443636 
L 194.908451 290.443636 
L 198.574221 290.443636 
L 202.239991 290.443636 
L 205.905761 290.443636 
L 209.571531 290.443636 
L 213.237301 290.443636 
L 216.903071 290.443636 
L 220.56884 290.443636 
L 224.23461 290.443636 
L 227.90038 286.099155 
L 231.56615 282.840793 
L 235.23192 280.668552 
L 238.89769 270.893468 
L 242.56346 241.568215 
L 246.22923 238.309854 
L 249.895 200.295638 
L 253.56077 175.314867 
L 257.22654 135.12841 
L 260.89231 139.472892 
L 264.55808 60.186098 
L 268.22385 41.72205 
L 271.88962 91.683591 
L 275.55539 121.008844 
L 279.22116 130.783928 
L 282.886929 175.314867 
L 286.552699 226.362529 
L 290.218469 240.482095 
L 293.884239 254.601661 
L 297.550009 270.893468 
L 301.215779 279.582432 
L 304.881549 290.443636 
L 308.547319 290.443636 
L 312.213089 290.443636 
L 315.878859 290.443636 
L 319.544629 290.443636 
L 323.210399 290.443636 
L 326.876169 290.443636 
L 330.541939 290.443636 
L 334.207709 290.443636 
L 337.873479 290.443636 
L 341.539249 290.443636 
L 345.205019 290.443636 
L 348.870788 290.443636 
L 352.536558 290.443636 
L 356.202328 290.443636 
L 359.868098 290.443636 
L 363.533868 290.443636 
L 367.199638 290.443636 
L 370.865408 290.443636 
L 374.531178 290.443636 
L 378.196948 290.443636 
L 381.862718 290.443636 
L 385.528488 290.443636 
L 389.194258 290.443636 
L 392.860028 290.443636 
L 396.525798 290.443636 
L 400.191568 290.443636 
L 403.857338 290.443636 
L 407.523108 290.443636 
L 411.188878 290.443636 
L 414.854647 290.443636 
L 418.520417 290.443636 
L 422.186187 290.443636 
L 425.851957 290.443636 
L 429.517727 290.443636 
" style="fill:none;stroke:#9467bd;stroke-linecap:square;stroke-width:1.5;"/>
   </g>
   <g id="patch_3">
    <path d="M 52.31 303.64 
L 52.31 13.32 
" style="fill:none;stroke:#000000;stroke-linecap:square;stroke-linejoin:miter;stroke-width:0.8;"/>
   </g>
   <g id="patch_4">
    <path d="M 447.48 303.64 
L 447.48 13.32 
" style="fill:none;stroke:#000000;stroke-linecap:square;stroke-linejoin:miter;stroke-width:0.8;"/>
   </g>
   <g id="patch_5">
    <path d="M 52.31 303.64 
L 447.48 303.64 
" style="fill:none;stroke:#000000;stroke-linecap:square;stroke-linejoin:miter;stroke-width:0.8;"/>
   </g>
   <g id="patch_6">
    <path d="M 52.31 13.32 
L 447.48 13.32 
" style="fill:none;stroke:#000000;stroke-linecap:square;stroke-linejoin:miter;stroke-width:0.8;"/>
   </g>
  </g>
 </g>
 <defs>
  <clipPath id="p901fcbac0f">
   <rect height="290.32" width="395.17" x="52.31" y="13.32"/>
  </clipPath>
 </defs>
</svg>
